<?xml version="1.0" encoding="utf-8"?>
<svg viewBox="0 0 500 500" xmlns="http://www.w3.org/2000/svg">
  <defs/>
  <rect x="107.69" y="103.573" width="287.154" height="188.126" style="paint-order: fill; stroke-width: 3px; fill: rgba(176, 176, 176, 0); stroke: rgba(176, 176, 176, 0.44);"/>
  <path d="M 197.904 160.315 L 259.256 254.163 L 309.783 195.517 L 383.839 281.474 L 277.111 281.474 L 277.242 281.676 L 118.565 281.676 L 197.904 160.315 Z" style="stroke: rgba(0, 0, 0, 0); fill: rgba(176, 176, 176, 0.27);"/>
  <ellipse style="stroke: rgba(0, 0, 0, 0); fill: rgba(145, 145, 145, 0.255);" cx="350.183" cy="141.023" rx="29.078" ry="29.078"/>
  <path d="M 180.085 365.727 L 156.373 340.321 L 156.373 364.598 L 152.308 364.598 L 152.308 329.595 L 176.02 355.001 L 176.02 330.724 L 180.085 330.724 L 180.085 365.727 Z M 198.739 365.05 C 196.556 365.05 194.561 364.523 192.755 363.469 C 190.948 362.415 189.512 360.997 188.446 359.215 C 187.379 357.434 186.846 355.465 186.846 353.306 C 186.846 351.123 187.379 349.147 188.446 347.378 C 189.512 345.61 190.948 344.199 192.755 343.145 C 194.561 342.091 196.556 341.564 198.739 341.564 C 200.948 341.564 202.949 342.091 204.743 343.145 C 206.536 344.199 207.967 345.61 209.034 347.378 C 210.099 349.147 210.632 351.123 210.632 353.306 C 210.632 355.465 210.099 357.434 209.034 359.215 C 207.967 360.997 206.536 362.415 204.743 363.469 C 202.949 364.523 200.948 365.05 198.739 365.05 Z M 198.739 361.212 C 200.195 361.212 201.513 360.854 202.692 360.139 C 203.871 359.424 204.812 358.47 205.514 357.278 C 206.216 356.086 206.567 354.762 206.567 353.306 C 206.567 351.851 206.216 350.528 205.514 349.336 C 204.812 348.144 203.871 347.19 202.692 346.475 C 201.513 345.76 200.195 345.403 198.739 345.403 C 197.284 345.403 195.967 345.76 194.788 346.475 C 193.608 347.19 192.667 348.144 191.964 349.336 C 191.262 350.528 190.911 351.851 190.911 353.306 C 190.911 354.762 191.262 356.086 191.964 357.278 C 192.667 358.47 193.608 359.424 194.788 360.139 C 195.967 360.854 197.284 361.212 198.739 361.212 Z M 229.15 364.598 L 229.15 330.724 L 233.441 330.724 L 233.441 364.598 L 229.15 364.598 Z M 242.246 364.598 L 242.246 342.016 L 246.009 342.016 L 246.009 345.252 C 246.838 344.022 247.885 343.1 249.152 342.486 C 250.419 341.871 251.755 341.564 253.161 341.564 C 254.692 341.564 256.097 341.921 257.376 342.637 C 258.656 343.352 259.684 344.349 260.462 345.629 C 261.34 344.274 262.476 343.258 263.869 342.58 C 265.261 341.903 266.735 341.564 268.292 341.564 C 269.998 341.564 271.56 341.965 272.977 342.768 C 274.395 343.571 275.523 344.694 276.364 346.137 C 277.205 347.58 277.626 349.28 277.626 351.236 L 277.626 364.598 L 273.561 364.598 L 273.561 351.727 C 273.561 349.669 272.977 348.107 271.81 347.04 C 270.643 345.974 269.295 345.441 267.764 345.441 C 266.81 345.441 265.888 345.654 264.998 346.081 C 264.107 346.507 263.379 347.172 262.814 348.076 C 262.25 348.979 261.967 350.158 261.967 351.613 L 261.967 364.598 L 257.902 364.598 L 257.902 351.727 C 257.902 350.297 257.62 349.117 257.056 348.188 C 256.491 347.26 255.764 346.564 254.873 346.099 C 253.983 345.635 253.061 345.403 252.107 345.403 C 251.178 345.403 250.269 345.616 249.378 346.042 C 248.488 346.469 247.754 347.134 247.176 348.037 C 246.599 348.94 246.311 350.132 246.311 351.613 L 246.311 364.598 L 242.246 364.598 Z M 294.087 364.9 C 292.029 364.9 290.147 364.379 288.441 363.338 C 286.735 362.297 285.374 360.898 284.357 359.141 C 283.341 357.384 282.832 355.439 282.832 353.306 C 282.832 351.174 283.341 349.229 284.357 347.473 C 285.374 345.716 286.735 344.318 288.441 343.276 C 290.147 342.235 292.029 341.714 294.087 341.714 C 295.643 341.714 297.104 342.003 298.471 342.58 C 299.839 343.158 301.024 343.96 302.028 344.989 L 302.028 342.016 L 305.791 342.016 L 305.791 364.598 L 302.028 364.598 L 302.028 361.625 C 301.024 362.629 299.839 363.426 298.471 364.015 C 297.104 364.605 295.643 364.9 294.087 364.9 Z M 294.613 361.212 C 296.044 361.212 297.342 360.854 298.51 360.139 C 299.676 359.424 300.605 358.47 301.295 357.278 C 301.985 356.086 302.329 354.762 302.329 353.306 C 302.329 351.851 301.985 350.528 301.295 349.336 C 300.605 348.144 299.676 347.19 298.51 346.475 C 297.342 345.76 296.044 345.403 294.613 345.403 C 293.183 345.403 291.885 345.76 290.718 346.475 C 289.551 347.19 288.623 348.144 287.933 349.336 C 287.242 350.528 286.897 351.851 286.897 353.306 C 286.897 354.762 287.242 356.086 287.933 357.278 C 288.623 358.47 289.551 359.424 290.718 360.139 C 291.885 360.854 293.183 361.212 294.613 361.212 Z M 322.165 376.341 C 320.433 376.341 318.858 376.09 317.441 375.589 C 316.023 375.086 314.762 374.396 313.658 373.519 L 314.787 368.926 C 315.54 370.006 316.543 370.884 317.798 371.561 C 319.054 372.238 320.496 372.577 322.126 372.577 C 324.661 372.577 326.712 371.812 328.281 370.281 C 329.849 368.751 330.633 366.782 330.633 364.372 L 330.633 361.625 C 329.629 362.629 328.444 363.426 327.076 364.015 C 325.709 364.605 324.247 364.9 322.691 364.9 C 320.634 364.9 318.753 364.379 317.046 363.338 C 315.34 362.297 313.979 360.898 312.962 359.141 C 311.946 357.384 311.437 355.439 311.437 353.306 C 311.437 351.174 311.946 349.229 312.962 347.473 C 313.979 345.716 315.34 344.318 317.046 343.276 C 318.753 342.235 320.634 341.714 322.691 341.714 C 324.247 341.714 325.709 342.003 327.076 342.58 C 328.444 343.158 329.629 343.96 330.633 344.989 L 330.633 342.016 L 334.396 342.016 L 334.396 364.598 C 334.396 367.057 333.826 369.165 332.684 370.921 C 331.542 372.677 330.043 374.02 328.186 374.949 C 326.329 375.877 324.322 376.341 322.165 376.341 Z M 323.218 361.212 C 324.649 361.212 325.947 360.854 327.113 360.139 C 328.281 359.424 329.209 358.47 329.899 357.278 C 330.589 356.086 330.934 354.762 330.934 353.306 C 330.934 351.851 330.589 350.528 329.899 349.336 C 329.209 348.144 328.281 347.19 327.113 346.475 C 325.947 345.76 324.649 345.403 323.218 345.403 C 321.788 345.403 320.49 345.76 319.323 346.475 C 318.156 347.19 317.228 348.144 316.538 349.336 C 315.848 350.528 315.502 351.851 315.502 353.306 C 315.502 354.762 315.848 356.086 316.538 357.278 C 317.228 358.47 318.156 359.424 319.323 360.139 C 320.49 360.854 321.788 361.212 323.218 361.212 Z M 352.388 365.05 C 350.03 365.05 347.916 364.523 346.046 363.469 C 344.176 362.415 342.709 360.979 341.643 359.159 C 340.576 357.341 340.042 355.315 340.042 353.082 C 340.042 350.948 340.557 349.009 341.587 347.266 C 342.615 345.522 344.001 344.136 345.745 343.106 C 347.489 342.078 349.415 341.564 351.522 341.564 C 353.604 341.564 355.512 342.059 357.243 343.05 C 358.975 344.041 360.355 345.377 361.384 347.059 C 362.412 348.741 362.926 350.648 362.926 352.78 L 362.926 354.437 L 348.172 354.437 C 347.52 354.437 346.855 354.412 346.177 354.361 C 345.5 354.311 344.835 354.236 344.183 354.135 C 344.459 356.143 345.368 357.824 346.912 359.178 C 348.454 360.534 350.293 361.212 352.426 361.212 C 353.856 361.212 355.186 360.885 356.416 360.232 C 357.645 359.58 358.636 358.714 359.389 357.636 L 360.518 362.265 C 359.439 363.143 358.203 363.826 356.81 364.316 C 355.417 364.806 353.943 365.05 352.388 365.05 Z M 344.07 351.387 C 345.425 351.161 346.792 351.049 348.172 351.049 L 355.662 351.049 C 356.215 351.049 356.761 351.067 357.299 351.105 C 357.839 351.142 358.385 351.186 358.937 351.236 C 358.586 349.48 357.708 348.031 356.302 346.889 C 354.897 345.747 353.304 345.176 351.522 345.176 C 349.691 345.176 348.085 345.785 346.705 347.003 C 345.325 348.219 344.447 349.681 344.07 351.387 Z" style="fill: rgba(162, 161, 161, 0.847);"/>
</svg>